# File created by Blade
# Date/Time:  Thu Jan 22 15:49:58 2015
# Frame Rate: 120.000 fps
#------------------------------------------------------
:FULLY-SPECIFIED
:DEGREES
549
root 3.154223 37.096458 5.324555 -0.909136 -1.350750 2.790221
RightUpLeg 10.426868 -7.374077 -5.607933
RightLeg -6.154896 -0.000000 0.000000
RightFoot -11.538679 -13.292440 16.801583
RightToeBase 13.849286 -0.000000 -0.000000
LeftUpLeg 8.358607 4.452573 1.441794
LeftLeg -3.358112 -0.000000 0.000000
LeftFoot -6.776580 7.152646 -17.134220
LeftToeBase 8.401606 -0.000000 -0.000000
Spine -1.209579 -6.027615 -4.734136
RightShoulder -7.408104 12.335289 -44.901384
RightArm 48.936782 68.445132 50.976609
RightForeArm 77.973387 0.000000 123.981591
RightHand 17.995388 -0.000000 -7.234385
RightHandThumb1 -24.326973 -0.000000 -32.862282
LeftShoulder -29.391082 7.115350 37.296166
LeftArm 178.260513 -39.264578 -112.327044
LeftForeArm -24.616595 0.000000 144.939172
LeftHand -6.427455 -0.000000 -8.554820
LeftHandThumb1 -26.253704 0.000000 33.147579
Head 18.772805 11.465687 1.068685
550
root 3.157547 37.095460 5.326390 -0.909924 -1.343210 2.813229
RightUpLeg 10.403243 -7.451887 -5.638425
RightLeg -6.095790 -0.000000 0.000000
RightFoot -11.550896 -13.234631 16.699228
RightToeBase 13.805332 -0.000000 -0.000000
LeftUpLeg 8.364247 4.445995 1.414183
LeftLeg -3.364177 -0.000000 0.000000
LeftFoot -6.771743 7.149447 -17.140572
LeftToeBase 8.395114 -0.000000 -0.000000
Spine -1.214319 -6.034834 -4.748482
RightShoulder -7.388875 12.345635 -44.889969
RightArm 48.930852 68.434550 50.959553
RightForeArm 77.959108 -0.000000 123.977439
RightHand 17.991852 -0.000000 -7.283713
RightHandThumb1 -24.326973 -0.000000 -32.862282
LeftShoulder -29.384223 7.138912 37.304165
LeftArm 178.272578 -39.274795 -112.353836
LeftForeArm -24.649641 -0.000000 144.931197
LeftHand -6.497692 -0.000000 -8.421169
LeftHandThumb1 -26.253704 0.000000 33.147579
Head 18.792935 11.494202 1.084769
551
root 3.156915 37.095682 5.327583 -0.908707 -1.331545 2.807058
RightUpLeg 10.441188 -7.356383 -5.621744
RightLeg -6.168232 -0.000000 0.000000
RightFoot -11.530268 -13.330200 16.742479
RightToeBase 13.810472 -0.000000 -0.000000
LeftUpLeg 8.364331 4.444317 1.422553
LeftLeg -3.365296 -0.000000 0.000000
LeftFoot -6.771456 7.136941 -17.140688
LeftToeBase 8.501038 -0.000000 -0.000000
Spine -1.214339 -6.040110 -4.739848
RightShoulder -7.390309 12.333853 -44.860696
RightArm 48.999381 68.416257 51.003289
RightForeArm 77.927197 0.000000 123.969464
RightHand 18.014795 0.000000 -7.281701
RightHandThumb1 -24.326973 -0.000000 -32.862282
LeftShoulder -29.395135 7.151986 37.312616
LeftArm 178.264975 -39.260244 -112.345998
LeftForeArm -24.641292 0.000000 144.933173
LeftHand -6.548824 -0.000000 -8.416852
LeftHandThumb1 -26.253704 0.000000 33.147579
Head 18.820666 11.499842 1.099714
552
root 3.158295 37.094978 5.329166 -0.908402 -1.320927 2.814945
RightUpLeg 10.454744 -7.319151 -5.626019
RightLeg -6.186465 -0.000000 0.000000
RightFoot -11.543849 -13.372505 16.734236
RightToeBase 13.799751 -0.000000 -0.000000
LeftUpLeg 8.366097 4.447249 1.415050
LeftLeg -3.367059 -0.000000 0.000000
LeftFoot -6.767105 7.122501 -17.124103
LeftToeBase 8.480823 -0.000000 -0.000000
Spine -1.222575 -6.040439 -4.732941
RightShoulder -7.382864 12.308411 -44.857350
RightArm 49.077971 68.403767 51.070967
RightForeArm 77.913114 -0.000000 123.969761
RightHand 18.046078 -0.000000 -7.323118
RightHandThumb1 -24.326973 -0.000000 -32.862282
LeftShoulder -29.379789 7.163833 37.309393
LeftArm 178.268198 -39.266262 -112.353562
LeftForeArm -24.636702 -0.000000 144.934164
LeftHand -6.556328 -0.000000 -8.387484
LeftHandThumb1 -26.253704 0.000000 33.147579
Head 18.835604 11.526096 1.108662
553
root 3.160580 37.094137 5.330644 -0.913917 -1.312266 2.831503
RightUpLeg 10.435985 -7.406001 -5.650983
RightLeg -6.130344 -0.000000 0.000000
RightFoot -11.577324 -13.328891 16.715345
RightToeBase 13.813986 -0.000000 -0.000000
LeftUpLeg 8.374334 4.451762 1.395164
LeftLeg -3.372184 -0.000000 0.000000
LeftFoot -6.766076 7.120558 -17.137905
LeftToeBase 8.422850 -0.000000 -0.000000
Spine -1.210259 -6.040780 -4.742629
RightShoulder -7.395597 12.332486 -44.856521
RightArm 49.068518 68.366631 51.065910
RightForeArm 77.895015 0.000000 123.972824
RightHand 18.025830 -0.000000 -7.367002
RightHandThumb1 -24.326973 -0.000000 -32.862282
LeftShoulder -29.388223 7.171003 37.314170
LeftArm 178.268549 -39.257373 -112.361225
LeftForeArm -24.625070 -0.000000 144.926942
LeftHand -6.532167 -0.000000 -8.386429
LeftHandThumb1 -26.253704 0.000000 33.147579
Head 18.837016 11.541013 1.095055
554
root 3.160660 37.094052 5.331843 -0.914746 -1.303112 2.829642
RightUpLeg 10.470307 -7.324910 -5.644580
RightLeg -6.192104 -0.000000 0.000000
RightFoot -11.600197 -13.401145 16.805766
RightToeBase 13.945572 -0.000000 -0.000000
LeftUpLeg 8.375905 4.453276 1.398186
LeftLeg -3.371070 -0.000000 0.000000
LeftFoot -6.763185 7.106236 -17.140493
LeftToeBase 8.462402 -0.000000 -0.000000
Spine -1.212705 -6.045246 -4.724255
RightShoulder -7.395183 12.309956 -44.850410
RightArm 49.167028 68.352031 51.148225
RightForeArm 77.881445 -0.000000 123.974672
RightHand 18.044021 -0.000000 -7.380726
RightHandThumb1 -24.326973 -0.000000 -32.862282
LeftShoulder -29.377192 7.181691 37.302886
LeftArm 178.287884 -39.261307 -112.370650
LeftForeArm -24.587782 -0.000000 144.920131
LeftHand -6.531640 -0.000000 -8.375628
LeftHandThumb1 -26.253704 0.000000 33.147579
Head 18.838525 11.572090 1.086229
555
root 3.162699 37.093280 5.333578 -0.921970 -1.292195 2.841907
RightUpLeg 10.453495 -7.401743 -5.666717
RightLeg -6.130823 -0.000000 0.000000
RightFoot -11.599416 -13.321125 16.716062
RightToeBase 13.837486 -0.000000 -0.000000
LeftUpLeg 8.388125 4.448171 1.382472
LeftLeg -3.374355 -0.000000 0.000000
LeftFoot -6.764185 7.098986 -17.119186
LeftToeBase 8.520577 -0.000000 -0.000000
Spine -1.199008 -6.051916 -4.727047
RightShoulder -7.412207 12.309856 -44.852836
RightArm 49.238639 68.321729 51.226435
RightForeArm 77.844488 -0.000000 123.981181
RightHand 18.051046 -0.000000 -7.398509
RightHandThumb1 -24.326973 -0.000000 -32.862282
LeftShoulder -29.391953 7.203374 37.288372
LeftArm 178.318572 -39.252902 -112.402778
LeftForeArm -24.567676 0.000000 144.917011
LeftHand -6.536673 -0.000000 -8.355091
LeftHandThumb1 -26.253704 0.000000 33.147579
Head 18.829579 11.589822 1.068193
